<svg role="img" viewBox="0 0 24 24" xmlns="http://www.w3.org/2000/svg">
  <title>Instagram</title>
  <defs>
    <radialGradient id="ig-a" cx="30%" cy="107%" r="150%">
      <stop offset="0" stop-color="#fdf497" />
      <stop offset="0.08" stop-color="#fdf497" />
      <stop offset="0.32" stop-color="#fd5949" />
      <stop offset="0.56" stop-color="#d6249f" />
      <stop offset="1" stop-color="#285aeb" />
    </radialGradient>
  </defs>
  <rect width="24" height="24" rx="6.2" fill="url(#ig-a)" />
  <path fill="#fff" d="M12 6.1c1.92 0 2.15.01 2.91.04.7.03 1.08.15 1.33.25.33.13.57.28.82.53.25.25.4.49.53.82.1.25.22.63.25 1.33.03.76.04.99.04 2.91s-.01 2.15-.04 2.91c-.03.7-.15 1.08-.25 1.33-.13.33-.28.57-.53.82-.25.25-.49.4-.82.53-.25.1-.63.22-1.33.25-.76.03-.99.04-2.91.04s-2.15-.01-2.91-.04c-.7-.03-1.08-.15-1.33-.25-.33-.13-.57-.28-.82-.53-.25-.25-.4-.49-.53-.82-.1-.25-.22-.63-.25-1.33-.03-.76-.04-.99-.04-2.91s.01-2.15.04-2.91c.03-.7.15-1.08.25-1.33.13-.33.28-.57.53-.82.25-.25.49-.4.82-.53.25-.1.63-.22 1.33-.25.76-.03.99-.04 2.91-.04Zm0-1.3c-1.95 0-2.19.01-2.96.04-.77.04-1.29.16-1.75.34-.47.18-.87.43-1.27.83-.4.4-.65.8-.83 1.27-.18.46-.3.98-.34 1.75-.03.77-.04 1.01-.04 2.96s.01 2.19.04 2.96c.04.77.16 1.29.34 1.75.18.47.43.87.83 1.27.4.4.8.65 1.27.83.46.18.98.3 1.75.34.77.03 1.01.04 2.96.04s2.19-.01 2.96-.04c.77-.04 1.29-.16 1.75-.34.47-.18.87-.43 1.27-.83.4-.4.65-.8.83-1.27.18-.46.3-.98.34-1.75.03-.77.04-1.01.04-2.96s-.01-2.19-.04-2.96c-.04-.77-.16-1.29-.34-1.75-.18-.47-.43-.87-.83-1.27-.4-.4-.8-.65-1.27-.83-.46-.18-.98-.3-1.75-.34-.77-.03-1.01-.04-2.96-.04Z" />
  <path fill="#fff" d="M12 8.3a3.7 3.7 0 1 0 0 7.4 3.7 3.7 0 0 0 0-7.4Zm0 6.1a2.4 2.4 0 1 1 0-4.8 2.4 2.4 0 0 1 0 4.8Z" />
  <circle cx="15.85" cy="8.15" r=".86" fill="#fff" />
</svg>
