<svg xmlns="http://www.w3.org/2000/svg" width="800" height="800" viewBox="0 0 375 375" preserveAspectRatio="xMidYMid meet">
  <path fill="#ece9e5" fill-opacity="0.5" d="M 142.449219 103.285156 C 143.296875 102.667969 144.113281 101.914062 144.894531 101.007812 C 153.285156 91.273438 147.230469 61.367188 149.351562 48.539062 C 150.109375 43.957031 154.574219 14.585938 162.144531 29.726562 C 176.125 57.691406 172.628906 120.605469 198.84375 106.625 C 225.058594 92.644531 301.953125 50.699219 279.234375 92.644531 C 256.515625 134.585938 197.097656 159.054688 246.03125 178.277344 C 294.964844 197.5 356.132812 232.453125 305.449219 234.199219 C 254.769531 235.949219 251.273438 234.199219 272.246094 270.902344 C 293.21875 307.601562 287.972656 316.339844 256.515625 293.621094 C 225.058594 270.902344 212.828125 245.167969 204.085938 306.09375 C 195.347656 367.019531 176.125 358.28125 163.890625 314.589844 C 151.65625 270.902344 148.164062 276.144531 125.441406 311.097656 C 102.722656 346.050781 92.238281 321.582031 97.480469 277.890625 C 102.722656 234.199219 90.488281 248.179688 69.519531 269.152344 C 48.546875 290.125 29.320312 279.640625 60.777344 237.695312 C 92.238281 195.753906 104.46875 183.519531 73.011719 176.53125 C 41.554688 169.539062 43.304688 152.0625 76.507812 146.820312 C 109.714844 141.578125 88.742188 127.597656 62.527344 82.15625 C 36.328125 36.75 92.164062 73.367188 109.695312 90.875 C 117.753906 98.925781 132.347656 110.667969 142.449219 103.289062 Z"/>
  <path fill="#e8e5e0" fill-opacity="0.35" d="M 152.183594 145.703125 C 152.609375 145.390625 153.019531 145.011719 153.410156 144.558594 C 158.820312 138.28125 150.308594 109.453125 159.269531 106.980469 L 159.273438 106.980469 C 169.652344 104.144531 163.300781 156.542969 180.488281 147.375 C 186.957031 143.925781 193.472656 140.503906 200.105469 137.378906 C 204.441406 135.332031 214.390625 129.332031 219.480469 131.40625 C 229.804688 135.609375 209.957031 154.652344 206.617188 158.046875 C 198.109375 166.703125 187.863281 176.929688 204.167969 183.335938 L 204.171875 183.335938 C 210.792969 185.9375 242.726562 196.507812 242.40625 206.300781 C 242.164062 213.539062 224.457031 211.433594 219.785156 211.933594 C 203.730469 213.65625 217.941406 229.800781 221.222656 237.320312 C 227.253906 251.132812 217.84375 247.300781 209.433594 241.226562 C 193.648438 229.824219 187.507812 216.910156 183.121094 247.484375 C 182.324219 253.054688 180.8125 262.488281 176.457031 266.414062 C 168.667969 273.4375 164.421875 257.019531 162.949219 251.75 L 162.949219 251.746094 C 160.773438 243.992188 158.144531 230.1875 149.847656 240.730469 C 146.160156 245.421875 142.011719 254.871094 135.933594 256.820312 C 126.179688 259.953125 128.992188 238.535156 129.617188 233.332031 C 132.246094 211.410156 126.109375 218.417969 115.589844 228.9375 C 112.964844 231.5625 105.796875 235.453125 103.128906 231.214844 C 99.972656 226.207031 108.507812 216.742188 111.195312 213.15625 C 126.984375 192.105469 133.125 185.96875 117.335938 182.457031 C 101.550781 178.949219 102.425781 170.179688 119.089844 167.546875 C 144.699219 163.503906 101.769531 136.527344 108.804688 125.199219 C 112.746094 118.855469 133.121094 136.847656 135.746094 139.46875 C 139.792969 143.507812 147.117188 149.402344 152.1875 145.699219 Z"/>
</svg>
