<svg xmlns="http://www.w3.org/2000/svg" xmlns:xlink="http://www.w3.org/1999/xlink" width="500" zoomAndPan="magnify" viewBox="0 0 375 374.999991" height="500" preserveAspectRatio="xMidYMid meet" version="1.0"><path fill="#ff71c2" d="M 142.449219 103.285156 C 143.296875 102.667969 144.113281 101.914062 144.894531 101.007812 C 153.285156 91.273438 147.230469 61.367188 149.351562 48.539062 C 150.109375 43.957031 154.574219 14.585938 162.144531 29.726562 C 176.125 57.691406 172.628906 120.605469 198.84375 106.625 C 225.058594 92.644531 301.953125 50.699219 279.234375 92.644531 C 256.515625 134.585938 197.097656 159.054688 246.03125 178.277344 C 294.964844 197.5 356.132812 232.453125 305.449219 234.199219 C 254.769531 235.949219 251.273438 234.199219 272.246094 270.902344 C 293.21875 307.601562 287.972656 316.339844 256.515625 293.621094 C 225.058594 270.902344 212.828125 245.167969 204.085938 306.09375 C 195.347656 367.019531 176.125 358.28125 163.890625 314.589844 C 151.65625 270.902344 148.164062 276.144531 125.441406 311.097656 C 102.722656 346.050781 92.238281 321.582031 97.480469 277.890625 C 102.722656 234.199219 90.488281 248.179688 69.519531 269.152344 C 48.546875 290.125 29.320312 279.640625 60.777344 237.695312 C 92.238281 195.753906 104.46875 183.519531 73.011719 176.53125 C 41.554688 169.539062 43.304688 152.0625 76.507812 146.820312 C 109.714844 141.578125 88.742188 127.597656 62.527344 82.15625 C 36.328125 36.75 92.164062 73.367188 109.695312 90.875 C 117.753906 98.925781 132.347656 110.667969 142.449219 103.289062 Z M 142.449219 103.285156 " fill-opacity="1" fill-rule="nonzero"/><path fill="#4169e1" d="M 185.785156 375.003906 C 180.3125 375.003906 172.074219 373.5625 163.867188 366.707031 C 156.1875 360.292969 152.273438 349.980469 142.921875 345.582031 C 130.027344 339.511719 120.4375 353.15625 107.488281 353.160156 L 107.480469 353.160156 C 98.257812 353.160156 89.707031 349.25 83.394531 342.140625 C 76.160156 333.996094 75.976562 322.800781 70.207031 314.011719 C 61.855469 301.285156 47.207031 307.550781 35.496094 301.019531 C 30.027344 297.972656 25.640625 293.367188 22.808594 287.703125 C 20.019531 282.128906 18.847656 275.832031 19.324219 268.980469 C 19.65625 264.160156 20.84375 258.976562 22.84375 253.585938 C 26.292969 244.292969 32.367188 233.8125 40.898438 222.4375 C 43.292969 219.246094 45.542969 216.273438 47.714844 213.398438 C 51.828125 207.957031 46.503906 193.992188 41.894531 190.785156 C 37.320312 187.601562 33.613281 183.851562 30.886719 179.632812 C 27.171875 173.890625 25.316406 167.359375 25.523438 160.746094 C 25.734375 153.886719 28.148438 147.261719 32.496094 141.585938 C 37.078125 135.609375 44.28125 130.847656 46.359375 123.289062 C 48.75 114.597656 45.296875 102.375 40.964844 94.863281 C 36.851562 87.734375 34.074219 81.65625 32.476562 76.277344 C 31.316406 72.378906 30.730469 68.757812 30.683594 65.203125 C 30.609375 59.523438 31.992188 54.058594 34.6875 49.398438 C 39.945312 40.289062 49.660156 34.855469 60.671875 34.855469 C 67.144531 34.855469 73.953125 36.617188 82.097656 40.40625 C 90.882812 44.492188 104.460938 54.203125 114.769531 50.671875 C 127.808594 46.203125 127.144531 26.460938 132.867188 16.054688 C 134.699219 12.71875 136.921875 9.839844 139.472656 7.492188 C 144.722656 2.660156 151.449219 0 158.402344 0 C 165.785156 0 172.847656 2.96875 178.292969 8.359375 C 181.03125 11.066406 183.339844 14.335938 185.347656 18.355469 C 189.871094 27.402344 192.527344 37.253906 194.742188 47.085938 C 196.402344 54.457031 195.835938 62.195312 203.683594 65.816406 C 211.339844 69.347656 221.875 66.328125 229.175781 62.996094 C 250.324219 53.351562 264.785156 49.050781 276.058594 49.050781 C 280.957031 49.050781 285.523438 49.863281 289.628906 51.46875 C 296.132812 54.007812 301.414062 58.445312 304.902344 64.300781 C 307.78125 69.132812 310.734375 77.210938 308.457031 88.246094 C 307.40625 93.335938 305.3125 98.738281 302.054688 104.753906 C 296.863281 114.335938 290.253906 123.050781 283.101562 131.25 C 278.726562 136.265625 268.847656 141.675781 269.5 149.492188 C 270.152344 157.304688 279.972656 160.953125 285.734375 164.457031 C 295.023438 170.113281 303.816406 176.554688 313.183594 182.121094 C 322.847656 187.859375 330.246094 193.128906 335.804688 198.222656 C 339.859375 201.9375 342.960938 205.59375 345.28125 209.390625 C 350.765625 218.367188 350.84375 226.511719 349.941406 231.761719 C 348.050781 242.78125 340.351562 251.582031 328.8125 255.90625 C 322.96875 258.097656 314.019531 256.964844 308.929688 260.058594 C 308.925781 260.058594 308.921875 260.0625 308.914062 260.066406 C 299.949219 265.527344 304.164062 278.789062 306.257812 286.742188 C 309.0625 297.386719 312.625 306.75 306.609375 317.117188 C 301.375 326.136719 291.832031 331.527344 281.082031 331.527344 L 281.074219 331.527344 C 273.023438 331.527344 265.480469 328.511719 258.46875 324.769531 C 251.125 320.84375 241.207031 305.871094 231.316406 311.054688 C 221.304688 316.304688 223.90625 340 219.449219 349.785156 C 216.5 356.265625 213.035156 361.367188 208.859375 365.382812 C 202.414062 371.589844 194.222656 375.003906 185.785156 375.007812 L 185.777344 375.007812 Z M 185.785156 375.003906 " fill-opacity="1" fill-rule="nonzero"/><path fill="#6684df" d="M 142.90625 103.285156 C 143.757812 102.667969 144.574219 101.914062 145.351562 101.007812 C 156.132812 88.503906 139.167969 31.058594 157.027344 26.140625 L 157.035156 26.140625 C 177.710938 20.484375 165.058594 124.890625 199.304688 106.625 C 212.191406 99.75 225.175781 92.933594 238.386719 86.703125 C 247.027344 82.628906 266.855469 70.671875 277 74.804688 C 297.570312 83.183594 258.023438 121.125 251.371094 127.890625 C 234.417969 145.136719 214.003906 165.515625 246.488281 178.277344 L 246.492188 178.277344 C 259.6875 183.464844 323.320312 204.523438 322.671875 224.027344 C 322.195312 238.453125 286.910156 234.253906 277.601562 235.253906 C 245.609375 238.683594 273.925781 270.859375 280.464844 285.835938 C 292.480469 313.359375 273.730469 305.71875 256.976562 293.621094 C 225.519531 270.902344 213.285156 245.171875 204.546875 306.089844 C 202.957031 317.1875 199.945312 335.984375 191.269531 343.808594 C 175.746094 357.804688 167.289062 325.085938 164.351562 314.59375 C 164.351562 314.589844 164.351562 314.585938 164.347656 314.585938 C 160.023438 299.136719 154.78125 271.625 138.25 292.640625 C 130.902344 301.988281 122.636719 320.8125 110.527344 324.699219 C 91.09375 330.9375 96.695312 288.265625 97.941406 277.894531 C 103.179688 234.214844 90.953125 248.179688 69.992188 269.140625 C 64.765625 274.371094 50.480469 282.125 45.164062 273.679688 C 38.878906 263.699219 55.882812 244.835938 61.238281 237.699219 C 92.695312 195.753906 104.929688 183.523438 73.472656 176.53125 C 42.015625 169.539062 43.761719 152.066406 76.964844 146.820312 C 127.992188 138.761719 42.453125 85.011719 56.46875 62.445312 C 64.324219 49.800781 104.921875 85.652344 110.152344 90.875 C 118.214844 98.925781 132.808594 110.667969 142.90625 103.289062 Z M 142.90625 103.285156 " fill-opacity="1" fill-rule="nonzero"/><path fill="#9aafed" d="M 152.183594 145.703125 C 152.609375 145.390625 153.019531 145.011719 153.410156 144.558594 C 158.820312 138.28125 150.308594 109.453125 159.269531 106.980469 L 159.273438 106.980469 C 169.652344 104.144531 163.300781 156.542969 180.488281 147.375 C 186.957031 143.925781 193.472656 140.503906 200.105469 137.378906 C 204.441406 135.332031 214.390625 129.332031 219.480469 131.40625 C 229.804688 135.609375 209.957031 154.652344 206.617188 158.046875 C 198.109375 166.703125 187.863281 176.929688 204.167969 183.335938 L 204.171875 183.335938 C 210.792969 185.9375 242.726562 196.507812 242.40625 206.300781 C 242.164062 213.539062 224.457031 211.433594 219.785156 211.933594 C 203.730469 213.65625 217.941406 229.800781 221.222656 237.320312 C 227.253906 251.132812 217.84375 247.300781 209.433594 241.226562 C 193.648438 229.824219 187.507812 216.910156 183.121094 247.484375 C 182.324219 253.054688 180.8125 262.488281 176.457031 266.414062 C 168.667969 273.4375 164.421875 257.019531 162.949219 251.75 L 162.949219 251.746094 C 160.773438 243.992188 158.144531 230.1875 149.847656 240.730469 C 146.160156 245.421875 142.011719 254.871094 135.933594 256.820312 C 126.179688 259.953125 128.992188 238.535156 129.617188 233.332031 C 132.246094 211.410156 126.109375 218.417969 115.589844 228.9375 C 112.964844 231.5625 105.796875 235.453125 103.128906 231.214844 C 99.972656 226.207031 108.507812 216.742188 111.195312 213.15625 C 126.984375 192.105469 133.125 185.96875 117.335938 182.457031 C 101.550781 178.949219 102.425781 170.179688 119.089844 167.546875 C 144.699219 163.503906 101.769531 136.527344 108.804688 125.199219 C 112.746094 118.855469 133.121094 136.847656 135.746094 139.46875 C 139.792969 143.507812 147.117188 149.402344 152.1875 145.699219 Z M 152.183594 145.703125 " fill-opacity="1" fill-rule="nonzero"/></svg>